<svg width="110" height="64" viewBox="0 0 110 64" fill="none" xmlns="http://www.w3.org/2000/svg">
    <path d="M72.195 63.167H57.26V.833h14.935v62.334zM51.887 32.01c0 14.195-11.619 25.682-25.934 25.682C11.638 57.692 0 46.186 0 32.01 0 17.833 11.619 6.327 25.934 6.327c14.315 0 25.953 11.487 25.953 25.683zm-18.078 0c0-4.303-3.511-7.78-7.856-7.78s-7.856 3.477-7.856 7.78c0 4.303 3.511 7.78 7.856 7.78s7.856-3.477 7.856-7.78zm76.152-15.617h-9.912l-5.819 5.762-5.819-5.762H78.5v9.988l5.742 5.686-5.742 5.686v9.854h10.067l5.684-5.628 5.683 5.628H110v-9.854l-5.741-5.686L110 26.381v-9.988h-.039z" fill="#002F34"/>
</svg>
